<?xml version="1.0" encoding="UTF-8"?>
<svg id="Layer_1" data-name="Layer 1" xmlns="http://www.w3.org/2000/svg" xmlns:xlink="http://www.w3.org/1999/xlink" viewBox="0 0 233.04 239.46">
  <defs>
    <style>
      .cls-1 {
        stroke: url(#New_Gradient_Swatch-8);
      }

      .cls-1, .cls-2, .cls-3, .cls-4, .cls-5, .cls-6, .cls-7, .cls-8, .cls-9, .cls-10, .cls-11, .cls-12, .cls-13, .cls-14, .cls-15, .cls-16 {
        stroke-miterlimit: 10;
      }

      .cls-1, .cls-2, .cls-3, .cls-4, .cls-5, .cls-6, .cls-7, .cls-8, .cls-9, .cls-10, .cls-11, .cls-12, .cls-13, .cls-15, .cls-16 {
        stroke-width: 2px;
      }

      .cls-1, .cls-2, .cls-3, .cls-4, .cls-5, .cls-6, .cls-7, .cls-8, .cls-10, .cls-11, .cls-12, .cls-13, .cls-15, .cls-16 {
        fill: none;
      }

      .cls-17 {
        fill: url(#linear-gradient);
      }

      .cls-17, .cls-18, .cls-19, .cls-20, .cls-21 {
        stroke-width: 0px;
      }

      .cls-2 {
        stroke: url(#New_Gradient_Swatch-7);
      }

      .cls-3 {
        stroke: url(#New_Gradient_Swatch-4);
      }

      .cls-4 {
        stroke: url(#New_Gradient_Swatch-6);
      }

      .cls-5 {
        stroke: url(#New_Gradient_Swatch-12);
      }

      .cls-6 {
        stroke: url(#New_Gradient_Swatch-9);
      }

      .cls-7 {
        stroke: url(#New_Gradient_Swatch-15);
      }

      .cls-18 {
        fill: url(#linear-gradient-2);
      }

      .cls-8 {
        stroke: url(#New_Gradient_Swatch-11);
      }

      .cls-19 {
        fill: url(#linear-gradient-3);
      }

      .cls-9 {
        font-family: Gotham-Medium, 'Gotham Medium';
        font-size: 18px;
        font-weight: 500;
      }

      .cls-9, .cls-14 {
        fill: #57a486;
        stroke: #57a486;
      }

      .cls-10 {
        stroke: url(#New_Gradient_Swatch-2);
      }

      .cls-11 {
        stroke: url(#New_Gradient_Swatch-10);
      }

      .cls-12 {
        stroke: url(#New_Gradient_Swatch-14);
      }

      .cls-20 {
        fill: url(#New_Gradient_Swatch);
      }

      .cls-13 {
        stroke: url(#New_Gradient_Swatch-3);
      }

      .cls-14 {
        stroke-width: 3px;
      }

      .cls-21 {
        fill: #fff;
        opacity: .51;
      }

      .cls-15 {
        stroke: url(#New_Gradient_Swatch-13);
      }

      .cls-16 {
        stroke: url(#New_Gradient_Swatch-5);
      }
    </style>
    <linearGradient id="linear-gradient" x1="136.28" y1="121.65" x2="51.09" y2="129.89" gradientUnits="userSpaceOnUse">
      <stop offset="0" stop-color="#b7853c"/>
      <stop offset=".47" stop-color="#8a6d3d"/>
      <stop offset="1" stop-color="#e9e3af"/>
    </linearGradient>
    <linearGradient id="linear-gradient-2" x1="130.41" y1="120.52" x2="50.47" y2="128.26" xlink:href="#linear-gradient"/>
    <linearGradient id="linear-gradient-3" x1="130.41" y1="120.52" x2="50.47" y2="128.26" xlink:href="#linear-gradient"/>
    <radialGradient id="New_Gradient_Swatch" data-name="New Gradient Swatch" cx="120.77" cy="143.56" fx="120.77" fy="143.56" r="148.63" gradientTransform="translate(-2.66 2.74) rotate(-1.22)" gradientUnits="userSpaceOnUse">
      <stop offset=".03" stop-color="#b7853c"/>
      <stop offset=".33" stop-color="#8a6d3d"/>
      <stop offset=".69" stop-color="#e4dda9"/>
      <stop offset="1" stop-color="#e9e3af"/>
    </radialGradient>
    <radialGradient id="New_Gradient_Swatch-2" data-name="New Gradient Swatch" cx="119.46" cy="145.24" fx="119.46" fy="145.24" r="147.31" gradientTransform="matrix(1,0,0,1,0,0)" xlink:href="#New_Gradient_Swatch"/>
    <radialGradient id="New_Gradient_Swatch-3" data-name="New Gradient Swatch" cx="119.46" cy="145.24" fx="119.46" fy="145.24" r="147.31" gradientTransform="matrix(1,0,0,1,0,0)" xlink:href="#New_Gradient_Swatch"/>
    <radialGradient id="New_Gradient_Swatch-4" data-name="New Gradient Swatch" cx="119.46" cy="145.24" fx="119.46" fy="145.24" r="147.31" gradientTransform="matrix(1,0,0,1,0,0)" xlink:href="#New_Gradient_Swatch"/>
    <radialGradient id="New_Gradient_Swatch-5" data-name="New Gradient Swatch" cx="119.46" cy="145.24" fx="119.46" fy="145.24" r="147.31" gradientTransform="matrix(1,0,0,1,0,0)" xlink:href="#New_Gradient_Swatch"/>
    <radialGradient id="New_Gradient_Swatch-6" data-name="New Gradient Swatch" cx="119.46" cy="145.24" fx="119.46" fy="145.24" r="147.31" gradientTransform="matrix(1,0,0,1,0,0)" xlink:href="#New_Gradient_Swatch"/>
    <radialGradient id="New_Gradient_Swatch-7" data-name="New Gradient Swatch" cx="119.46" cy="145.24" fx="119.46" fy="145.24" r="147.31" gradientTransform="matrix(1,0,0,1,0,0)" xlink:href="#New_Gradient_Swatch"/>
    <radialGradient id="New_Gradient_Swatch-8" data-name="New Gradient Swatch" cx="119.46" cy="145.24" fx="119.46" fy="145.24" r="147.31" gradientTransform="matrix(1,0,0,1,0,0)" xlink:href="#New_Gradient_Swatch"/>
    <radialGradient id="New_Gradient_Swatch-9" data-name="New Gradient Swatch" cx="119.46" cy="145.24" fx="119.46" fy="145.24" r="147.31" gradientTransform="matrix(1,0,0,1,0,0)" xlink:href="#New_Gradient_Swatch"/>
    <radialGradient id="New_Gradient_Swatch-10" data-name="New Gradient Swatch" cx="119.46" cy="145.24" fx="119.46" fy="145.24" r="147.31" gradientTransform="matrix(1,0,0,1,0,0)" xlink:href="#New_Gradient_Swatch"/>
    <radialGradient id="New_Gradient_Swatch-11" data-name="New Gradient Swatch" cx="119.46" cy="145.24" fx="119.46" fy="145.24" r="147.31" gradientTransform="matrix(1,0,0,1,0,0)" xlink:href="#New_Gradient_Swatch"/>
    <radialGradient id="New_Gradient_Swatch-12" data-name="New Gradient Swatch" cx="119.46" cy="145.24" fx="119.46" fy="145.24" r="147.31" gradientTransform="matrix(1,0,0,1,0,0)" xlink:href="#New_Gradient_Swatch"/>
    <radialGradient id="New_Gradient_Swatch-13" data-name="New Gradient Swatch" cx="119.46" cy="145.24" fx="119.46" fy="145.24" r="147.31" gradientTransform="matrix(1,0,0,1,0,0)" xlink:href="#New_Gradient_Swatch"/>
    <radialGradient id="New_Gradient_Swatch-14" data-name="New Gradient Swatch" cx="119.46" cy="145.24" fx="119.46" fy="145.24" r="147.31" gradientTransform="matrix(1,0,0,1,0,0)" xlink:href="#New_Gradient_Swatch"/>
    <radialGradient id="New_Gradient_Swatch-15" data-name="New Gradient Swatch" cx="119.46" cy="145.24" fx="119.46" fy="145.24" r="147.31" gradientTransform="matrix(1,0,0,1,0,0)" xlink:href="#New_Gradient_Swatch"/>
  </defs>
  <path class="cls-17" d="M127.43,207.48c-47.39,0-85.81-37.58-85.81-83.94S80.04,39.61,127.43,39.61c27.44,0,51.85,12.61,67.54,32.22.1.13.26.2.42.2h0c.45,0,.7-.51.44-.87-16.18-21.41-42.15-35.3-71.47-35.3-49.09,0-88.88,38.92-88.88,86.94s39.79,86.94,88.88,86.94c22.23,0,42.54-7.98,58.13-21.18h-.61c-.12,0-.24.04-.33.12-14.77,11.75-33.6,18.8-54.12,18.8Z"/>
  <g>
    <g>
      <path class="cls-18" d="M196.34,71.32c.32.45.83.72,1.38.72h0c-15.91-23.66-42.92-39.23-73.58-39.23-48.97,0-88.67,39.7-88.67,88.67,0,.22.02.44.02.66.36-48.66,39.9-88,88.65-88,29.77,0,56.11,14.68,72.2,37.19Z"/>
      <path class="cls-19" d="M181.92,188.56c-.39,0-.76.13-1.06.38-14.68,11.82-33.33,18.9-53.64,18.9-47.06,0-85.23-37.97-85.59-84.94,0,.22-.02.44-.02.66,0,47.28,38.33,85.61,85.61,85.61,10.7,0,20.94-1.97,30.39-5.56,9.01-3.67,17.27-8.78,24.51-15.04h-.19Z"/>
    </g>
    <g>
      <path class="cls-21" d="M196.34,71.32c.32.45.83.72,1.38.72h0c-15.91-23.66-42.92-39.23-73.58-39.23-48.97,0-88.67,39.7-88.67,88.67,0,.22.02.44.02.66.36-48.66,39.9-88,88.65-88,29.77,0,56.11,14.68,72.2,37.19Z"/>
      <path class="cls-21" d="M181.92,188.56c-.39,0-.76.13-1.06.38-14.68,11.82-33.33,18.9-53.64,18.9-47.06,0-85.23-37.97-85.59-84.94,0,.22-.02.44-.02.66,0,47.28,38.33,85.61,85.61,85.61,10.7,0,20.94-1.97,30.39-5.56,9.01-3.67,17.27-8.78,24.51-15.04h-.19Z"/>
    </g>
  </g>
  <g>
    <path class="cls-14" d="M123.58,93.33c-10.94,4.28-22.23.68-33.43,1.44-10.77.73-18.31,7.23-24.67,15.45-.42.54.62.66.9.29,3.84-4.96,8.13-9.79,13.89-12.53,7.2-3.42,14.42-2.26,22.05-1.7,7.09.52,15,.27,21.72-2.36.7-.27.08-.81-.47-.6h0Z"/>
    <path class="cls-14" d="M131.98,98.47c-.28-.79-.96-1.3-2.03-1.51-1.54-.3-3.34.92-4.09,1.49-.12.05-.2.09-.2.09-8.45,7.61-13.94,17.1-18.99,26.87-1.24.99-2.48,1.98-3.72,2.96-2.73,2.17-5.56,4.42-8.28,6.67l-1.43,1.19c-3.71,3.08-7.55,6.27-11.83,8.6-.73.4-2.32,1.34-3.1.7-.82-.67-.65-2.73-.56-3.63.25-2.52,1.08-4.95,2.02-7.31,2.52-6.34,5.86-12.32,9.39-18.15,2.65-4.38,5.42-8.69,8.31-12.93.73-1.07,1.46-2.13,2.29-3.12.32-.38.66-.76.83-1.22s.11-1.05-.27-1.37c-.37-.31-.94-.27-1.36-.03s-.73.63-1.02,1.01c-5.67,7.48-10.35,15.65-15.2,23.69-1.99,3.3-4.02,6.61-5.51,10.17s-2.4,7.43-2.07,11.27c.14,1.65.95,3.2,2.82,2.69,3.01-.82,5.67-2.34,8.2-4.12,2.56-1.81,4.98-3.81,7.39-5.82l1.43-1.19c2.73-2.25,5.55-4.49,8.28-6.66.91-.72,1.82-1.45,2.73-2.18-1.72,3.36-3.4,6.74-5.15,10.09-.54,1.04,1.65.96,2.06.18,2.32-3.88,4.7-8.63,7.47-13.81,6.6-5.4,13.09-11.11,18.64-17.65.16-.18,3.8-4.51,2.93-6.99ZM131.17,101c-.59,1.46-1.45,2.84-2.47,4.15-1.91,2.47-4.35,4.68-6.43,6.72-3.56,3.48-7.32,6.75-11.16,9.91.63-.52,1.09-2,1.49-2.72.57-1.02,1.14-2.03,1.73-3.03,1.22-2.1,2.49-4.16,3.82-6.2,1.37-2.09,2.8-4.14,4.3-6.14,1.27-1.68,2.26-3.69,3.9-5.06,1.26-1.05,4.64-2.2,5.15.22.15.71-.06,1.45-.33,2.13Z"/>
    <path class="cls-14" d="M165.43,118.16c-5.46,9.76-11.07,24.78-22.37,38.78-.85,1.05.76.23.76.23,11.4-10.86,17.02-25.17,23.68-38.88.51-1.05-1.68-.91-2.07-.12h0Z"/>
    <path class="cls-14" d="M150.27,134.48c-2.68.26.11-5.22.52-6.13.87-1.92,1.84-3.79,2.9-5.6.39-.66,3.21-4.24,2.15-4.61-1.29-.45-2.66,1.47-3.29,2.29-1.16,1.52-8.79,15.49-2.34,14.87.74-.07.67-.87.04-.81Z"/>
    <path class="cls-14" d="M150.07,135.74c-.12,0-.24-.01-.35-.04-.84-.17-1.26-.95-1.38-1.38l1.08-.3-.54.15.54-.15s.15.51.53.58c.28.06,1.13-.04,2.83-2.17,3.49-4.36,12.86-14.01,12.96-14.1l.81.78c-.09.1-9.43,9.7-12.88,14.02-1.4,1.75-2.58,2.61-3.59,2.61Z"/>
    <path class="cls-14" d="M140.05,159.16c-.56,0-1.02-.23-1.37-.69-.25-.32-.35-.71-.42-1.08-.93-4.64,1.92-8.53,4.84-11.72,4.05-4.44,9.26-7.65,14.31-10.75.82-.51,1.64-1.01,2.45-1.52,1.79-1.12,3.58-2.23,5.38-3.35,4.27-2.65,8.68-5.39,12.95-8.19l.31.47c-4.28,2.8-8.69,5.54-12.96,8.19-1.79,1.11-3.59,2.22-5.37,3.34-.81.51-1.63,1.01-2.46,1.52-5.01,3.09-10.19,6.28-14.19,10.65-2.82,3.09-5.58,6.84-4.7,11.23.06.3.14.62.32.85.25.32.57.47.94.47,1.64-.02,4.14-2.79,4.87-3.8l.46.33c-.61.85-3.3,4.01-5.32,4.04h-.03Z"/>
    <path class="cls-14" d="M197.68,122.5c-.07.06-6.88,6.01-11.03,6.01-.11,0-.21,0-.31-.01-.46-.04-.86-.15-1.2-.35.57-.59,1.12-1.18,1.64-1.74l1.01-1.07c2.98-3.14,3.89-6.1,3.76-7.67-.05-.61-.25-1.07-.59-1.32-1.26-.96-3.65.41-4.65,1.36-.06.06-5.99,5.75-2.25,10.25.07.09.15.17.23.25-1.37,1.42-2.77,2.83-4.26,4.12-.67.58-1.36,1.14-2.08,1.65-.74.52-1.65,1.24-2.59,1.25-1.63,0-1.05-2.24-.75-3.15.48-1.47,1.09-2.89,1.75-4.28,1.08-2.28,2.31-4.49,3.69-6.6.61-.95,1.26-1.88,1.69-2.92.13-.31.19-.74-.1-.9-.12-.07-.28-.06-.41-.02-.53.13-.95.51-1.33.9-.85.89-1.56,1.9-2.23,2.93-2.27,3.5-4.17,7.34-4.75,11.47-.15,1.05-.15,2.27.65,2.96.79.68,2.02.51,2.93,0,.67-.37,1.25-.88,1.87-1.33s1.28-.9,1.88-1.42c.78-.67,1.54-1.38,2.28-2.1.19-.19,2.13-2.25,2.19-2.21.44.28.96.45,1.55.5,4.37.34,11.46-5.87,11.76-6.13l-.37-.42ZM184.69,127.8c-.07-.06-.13-.13-.19-.21-3.41-4.11,2.14-9.43,2.2-9.49.7-.66,2.16-1.54,3.2-1.54.28,0,.53.06.72.21.2.15.33.48.37.92.13,1.57-.94,4.42-3.61,7.24l-1.01,1.08c-.53.56-1.09,1.16-1.68,1.78Z"/>
    <g>
      <path class="cls-14" d="M134.98,121.17c-5.8,4.85-10.71,11.04-17.61,14.14-.35.16-.81.29-1.08.01-.25-.26-.13-.69.01-1.03,1.93-4.4,6.08-7.67,7.35-12.3.19-.69.31-1.42.16-2.12-.29-1.33-1.38-1.81-2.62-1.43-1.74.54-3.09,1.88-4.37,3.17-4.58,4.65-9.15,9.31-13.88,13.79-.26.25-.53.5-.68.83s-.16.74.07,1.02c.78-.46,1.4-1.14,2.01-1.81,4.71-5.19,9.35-10.59,14.64-15.21.7-.61,2.06-1.42,2.86-.56.61.65.21,1.71-.24,2.47-2.2,3.73-5.3,6.9-6.96,10.95-.32.79-.56,1.77-.02,2.43.38.46,1.03.59,1.62.57,1.09-.05,2.1-.53,3.06-1.06,6.13-3.4,10.72-8.95,16.07-13.49-.13-.13-.26-.26-.39-.39Z"/>
      <path class="cls-14" d="M153.71,120.53l-5.63,4.69c-.12.1-11.8,9.89-15.3,11.7-1,.52-1.76.62-2.25.31-.68-.44-.12-1.69.09-2.26.36-1,.89-1.98,1.59-2.78.68-.77,1.48-1.44,2.22-2.15.8-.77,1.57-1.62,2.01-2.66.33-.77.45-1.68.04-2.41-.32-.57-.91-.92-1.35-1.4-.94-1.02-1.17-2.55-.9-3.91.23-1.17.8-2.26,1.6-3.13.84-.92,2.07-1.68,3.25-2.06.89-.28,1.3.34.8,1.1-1.32,1.98-3.23,4.09-5.02,5.67-.07.06.19-.18.18-.09-.02.15-.14.46.01.44s.05.19.16.08c1.2-1.08,2.92-2.68,3.93-3.95.54-.68,2.38-2.81,1.19-3.63-.49-.33-1.18-.35-1.75-.36-1.97-.04-4.15,1.2-5.37,2.71-1.12,1.39-1.56,3.43-.74,5.02.34.65.85,1.19,1.41,1.66.47.39,1.01.8,1.13,1.4.11.56-.2,1.12-.55,1.57-.74.94-1.72,1.65-2.56,2.5-1.29,1.3-2.23,2.93-2.73,4.7-.21.73-.34,1.5-.24,2.26.11.88.54,1.66,1.29,2.15.28.18.6.27.97.27.53,0,1.15-.18,1.85-.55,3.55-1.84,14.92-11.36,15.4-11.77l5.63-4.69-.36-.43Z"/>
    </g>
    <path class="cls-14" d="M216.71,109.72c-.7-1.28-2.1-2.13-3.55-2.38-1.64-.28-3.33.12-4.87.76-2.06.86-3.96,2.17-5.3,3.95s-2.11,4.04-1.89,6.26c.02.22.11.49.32.5.25.01.34-.33.35-.58.09-2.51,1.1-4.98,2.78-6.84s4.04-3.11,6.53-3.46c.7-.1,1.46-.12,2.08.23.7.39,1.09,1.17,1.27,1.95.47,1.96-.13,4.06-1.22,5.75-1.61,2.49-4.2,4.97-7.19,5.58-.25.05-.51.09-.75.2-1.51.71,1.14,1.31,1.59,1.5,1.29.55,1.65,1.62,1.65,2.95,0,2.82-1.38,5.58-2.87,7.91-1.16,1.8-2.6,3.42-4.27,4.77-1.41,1.13-3.8,2.99-5.69,1.99-1.99-1.05-1.69-4.05-1.09-5.82,1.28-3.79,4.53-6.65,8.12-8.4.28-.14.62-.41.47-.69-.13-.25-.5-.18-.76-.06-3.43,1.5-6.31,4.2-8.02,7.53-.61,1.18-1.07,2.45-1.14,3.77s.3,2.7,1.19,3.67c2.55,2.78,6.48,1,8.97-.81,1.22-.89,2.33-1.94,3.28-3.11,1.57-1.93,2.75-4.16,3.55-6.51.64-1.87,1.08-4.1-.03-5.89-.37-.59-.89-1.08-1.48-1.45-.55-.35-1.16-.62-1.79-.79,3.88-1.69,7.95-3.86,9.67-7.98.52-1.26.78-2.7.31-3.98-.07-.18-.14-.35-.23-.52Z"/>
  </g>
  <g>
    <text class="cls-9" transform="translate(23.93 100.4) rotate(-72.24)"><tspan x="0" y="0"> </tspan></text>
    <text class="cls-9" transform="translate(24.73 97.61) rotate(-69.3)"><tspan x="0" y="0">T</tspan></text>
    <text class="cls-9" transform="translate(27.9 89.42) rotate(-65.96)"><tspan x="0" y="0"> </tspan></text>
    <text class="cls-9" transform="translate(29.41 86.02) rotate(-63.96)"><tspan x="0" y="0"> </tspan></text>
    <text class="cls-9" transform="translate(30.87 82.71) rotate(-59.91)"><tspan x="0" y="0">H</tspan></text>
    <text class="cls-9" transform="translate(36.75 72.81) rotate(-55.87)"><tspan x="0" y="0"> </tspan></text>
    <text class="cls-9" transform="translate(38.83 69.75) rotate(-53.9)"><tspan x="0" y="0"> </tspan></text>
    <text class="cls-9" transform="translate(41.02 66.74) rotate(-51.91)"><tspan x="0" y="0"> </tspan></text>
    <text class="cls-9" transform="translate(43.19 63.82) rotate(-48.41)"><tspan x="0" y="0">R</tspan></text>
    <text class="cls-9" transform="translate(49.56 56.77) rotate(-44.9)"><tspan x="0" y="0"> </tspan></text>
    <text class="cls-9" transform="translate(52.19 54.15) rotate(-42.92)"><tspan x="0" y="0"> </tspan></text>
    <text class="cls-9" transform="translate(54.2 52.13) rotate(-39.82)"><tspan x="0" y="0">Y</tspan></text>
    <text class="cls-9" transform="translate(61.58 46.09) rotate(-36.29)"><tspan x="0" y="0"> </tspan></text>
    <text class="cls-9" transform="translate(64.57 43.89) rotate(-34.29)"><tspan x="0" y="0"> </tspan></text>
    <text class="cls-9" transform="translate(66.99 42.11) rotate(-31)"><tspan x="0" y="0">V</tspan></text>
    <text class="cls-9" transform="translate(75.47 37.12) rotate(-27.36)"><tspan x="0" y="0"> </tspan></text>
    <text class="cls-9" transform="translate(78.77 35.41) rotate(-25.35)"><tspan x="0" y="0"> </tspan></text>
    <text class="cls-9" transform="translate(82.03 33.78) rotate(-22.02)"><tspan x="0" y="0">E</tspan></text>
    <text class="cls-9" transform="translate(90.1 30.58) rotate(-18.7)"><tspan x="0" y="0"> </tspan></text>
    <text class="cls-9" transform="translate(93.61 29.4) rotate(-16.7)"><tspan x="0" y="0"> </tspan></text>
    <text class="cls-9" transform="translate(97.18 28.32) rotate(-14.72)"><tspan x="0" y="0">.</tspan></text>
    <text class="cls-9" transform="translate(100.68 27.4) rotate(-12.75)"><tspan x="0" y="0"> </tspan></text>
    <text class="cls-9" transform="translate(104.32 26.58) rotate(-10.76)"><tspan x="0" y="0"> </tspan></text>
    <text class="cls-9" transform="translate(107.16 25.95) rotate(-7.86)"><tspan x="0" y="0">T</tspan></text>
    <text class="cls-9" transform="translate(115.87 24.81) rotate(-4.58)"><tspan x="0" y="0"> </tspan></text>
    <text class="cls-9" transform="translate(119.57 24.52) rotate(-2.62)"><tspan x="0" y="0"> </tspan></text>
    <text class="cls-9" transform="translate(123.15 24.19) rotate(1.6)"><tspan x="0" y="0">O</tspan></text>
    <text class="cls-9" transform="translate(135.32 24.68) rotate(5.85)"><tspan x="0" y="0"> </tspan></text>
    <text class="cls-9" transform="translate(139.03 25.05) rotate(7.86)"><tspan x="0" y="0"> </tspan></text>
    <text class="cls-9" transform="translate(142.62 25.39) rotate(12.02)"><tspan x="0" y="0">D</tspan></text>
    <text class="cls-9" transform="translate(154.09 27.98) rotate(16.16)"><tspan x="0" y="0"> </tspan></text>
    <text class="cls-9" transform="translate(157.67 29.01) rotate(18.17)"><tspan x="0" y="0"> </tspan></text>
    <text class="cls-9" transform="translate(161.14 30.01) rotate(22.05)"><tspan x="0" y="0">A</tspan></text>
    <text class="cls-9" transform="translate(171.11 34.18) rotate(25.92)"><tspan x="0" y="0"> </tspan></text>
    <text class="cls-9" transform="translate(174.46 35.8) rotate(27.91)"><tspan x="0" y="0"> </tspan></text>
    <text class="cls-9" transform="translate(177.02 37.04) rotate(31.01)"><tspan x="0" y="0">Y</tspan></text>
  </g>
  <g>
    <g>
      <path class="cls-20" d="M21.83,129.76l-.3-3.74,1.35-.11.72,9.1-1.35.11-.3-3.75-10.94.87-.13-1.6,10.94-.87Z"/>
      <path class="cls-20" d="M24.86,143.32c.35.74.71,1.84.97,2.91.4,1.65.36,2.79-.14,3.7-.39.73-1.12,1.27-2.05,1.5-1.58.38-2.87-.36-3.61-1.51h-.05c-.1,1.01-.81,1.77-1.99,2.36-1.58.8-2.66,1.36-3.06,1.72l-.39-1.6c.29-.28,1.26-.79,2.67-1.5,1.57-.76,2.03-1.55,1.75-2.96l-.35-1.46-5.19,1.26-.38-1.55,11.82-2.87ZM19.78,146.19l.39,1.58c.4,1.65,1.56,2.48,2.93,2.15,1.55-.38,1.95-1.66,1.57-3.3-.18-.75-.38-1.26-.51-1.49l-4.37,1.06Z"/>
      <path class="cls-20" d="M22.75,164.56l-4.07.36-.65-1.51,12.97-1.04.76,1.76-9.64,8.75-.67-1.56,3.04-2.75-1.73-4.01ZM25.5,167.78l2.78-2.51c.63-.57,1.23-1.03,1.81-1.48l-.02-.03c-.74.12-1.51.23-2.29.31l-3.75.31,1.47,3.41Z"/>
      <path class="cls-20" d="M38.66,177.11l-10.5,6.45-.83-1.36,10.5-6.45.83,1.36Z"/>
      <path class="cls-20" d="M34.71,193.15l9.46-7.89,1.11,1.33-2.26,7.03c-.52,1.63-1.06,3.01-1.66,4.26l.04.02c1.17-1.17,2.3-2.15,3.77-3.38l3.96-3.3.96,1.15-9.46,7.89-1.03-1.23,2.29-7.01c.5-1.54,1.06-3.07,1.68-4.4l-.05-.03c-1.13,1.06-2.25,2.04-3.82,3.35l-4.04,3.37-.96-1.15Z"/>
      <path class="cls-20" d="M58.32,200.29l-8.21,9.19-1.19-1.06,8.21-9.19,1.19,1.06Z"/>
      <path class="cls-20" d="M59.19,216.81l6.77-10.3,1.45.95-.12,7.38c-.03,1.71-.15,3.19-.35,4.56h.04c.78-1.45,1.58-2.72,2.63-4.33l2.83-4.31,1.25.82-6.77,10.3-1.34-.88.16-7.38c.03-1.62.12-3.25.33-4.71h-.06c-.78,1.34-1.56,2.59-2.69,4.31l-2.89,4.4-1.25-.82Z"/>
      <path class="cls-20" d="M86.31,230.63c-.76-.04-2.22-.2-3.75-.85-1.72-.73-2.95-1.76-3.62-3.29-.58-1.36-.55-3.13.2-4.9,1.44-3.38,4.81-4.88,8.62-3.27,1.31.55,2.22,1.27,2.61,1.72l-.86,1.05c-.49-.53-1.16-1.06-2.3-1.55-2.76-1.17-5.29-.21-6.49,2.64-1.21,2.88-.2,5.32,2.45,6.43.96.4,1.67.55,2.08.52l1.43-3.39-2.31-.97.5-1.18,3.74,1.58-2.3,5.46Z"/>
      <path class="cls-20" d="M113.75,237.37c-.62.2-1.82.31-3.3.08-3.43-.54-5.68-3.1-5.05-7.09.59-3.81,3.58-5.99,7.35-5.4,1.52.24,2.42.71,2.81.99l-.58,1.22c-.55-.38-1.37-.73-2.38-.89-2.85-.45-5.03,1.08-5.53,4.28-.46,2.98.95,5.16,3.92,5.62.96.15,1.96.1,2.64-.11l.13,1.3Z"/>
      <path class="cls-20" d="M130.99,232.64l-4.79.03.03,4.45,5.34-.03v1.33s-6.92.04-6.92.04l-.07-12.33,6.66-.04v1.34s-5.06.03-5.06.03l.02,3.9,4.79-.03v1.32Z"/>
      <path class="cls-20" d="M142.63,237.49l-2.13-12.14,1.71-.3,4.97,5.46c1.15,1.26,2.08,2.42,2.87,3.56l.03-.02c-.43-1.59-.72-3.07-1.06-4.96l-.89-5.08,1.48-.26,2.13,12.14-1.58.28-4.93-5.48c-1.08-1.2-2.14-2.45-2.98-3.65l-.05.03c.36,1.51.65,2.97,1.01,4.98l.91,5.19-1.48.26Z"/>
      <path class="cls-20" d="M160.96,221.85l-3.54,1.24-.45-1.28,8.62-3.01.45,1.28-3.56,1.24,3.62,10.36-1.52.53-3.62-10.36Z"/>
      <path class="cls-20" d="M181.96,218.08l-4.22,2.26,2.1,3.92,4.71-2.52.63,1.18-6.11,3.27-5.82-10.87,5.87-3.14.63,1.18-4.47,2.39,1.84,3.43,4.22-2.26.62,1.16Z"/>
      <path class="cls-20" d="M187.06,207.29c.54-.62,1.4-1.39,2.27-2.06,1.35-1.03,2.41-1.45,3.44-1.37.83.06,1.61.52,2.19,1.27.99,1.29.83,2.77.06,3.91l.03.04c.96-.32,1.94.04,2.95.88,1.36,1.12,2.32,1.89,2.81,2.11l-1.31,1c-.37-.15-1.23-.83-2.44-1.84-1.32-1.13-2.23-1.24-3.42-.4l-1.19.91,3.24,4.24-1.26.96-7.38-9.66ZM191.73,210.78l1.29-.99c1.35-1.03,1.64-2.43.79-3.55-.97-1.26-2.3-1.12-3.65-.11-.61.47-1,.86-1.16,1.07l2.73,3.57Z"/>
    </g>
    <g>
      <path class="cls-10" d="M21.83,129.76l-.3-3.74,1.35-.11.72,9.1-1.35.11-.3-3.75-10.94.87-.13-1.6,10.94-.87Z"/>
      <path class="cls-13" d="M24.86,143.32c.35.74.71,1.84.97,2.91.4,1.65.36,2.79-.14,3.7-.39.73-1.12,1.27-2.05,1.5-1.58.38-2.87-.36-3.61-1.51h-.05c-.1,1.01-.81,1.77-1.99,2.36-1.58.8-2.66,1.36-3.06,1.72l-.39-1.6c.29-.28,1.26-.79,2.67-1.5,1.57-.76,2.03-1.55,1.75-2.96l-.35-1.46-5.19,1.26-.38-1.55,11.82-2.87ZM19.78,146.19l.39,1.58c.4,1.65,1.56,2.48,2.93,2.15,1.55-.38,1.95-1.66,1.57-3.3-.18-.75-.38-1.26-.51-1.49l-4.37,1.06Z"/>
      <path class="cls-3" d="M22.75,164.56l-4.07.36-.65-1.51,12.97-1.04.76,1.76-9.64,8.75-.67-1.56,3.04-2.75-1.73-4.01ZM25.5,167.78l2.78-2.51c.63-.57,1.23-1.03,1.81-1.48l-.02-.03c-.74.12-1.51.23-2.29.31l-3.75.31,1.47,3.41Z"/>
      <path class="cls-16" d="M38.66,177.11l-10.5,6.45-.83-1.36,10.5-6.45.83,1.36Z"/>
      <path class="cls-4" d="M34.71,193.15l9.46-7.89,1.11,1.33-2.26,7.03c-.52,1.63-1.06,3.01-1.66,4.26l.04.02c1.17-1.17,2.3-2.15,3.77-3.38l3.96-3.3.96,1.15-9.46,7.89-1.03-1.23,2.29-7.01c.5-1.54,1.06-3.07,1.68-4.4l-.05-.03c-1.13,1.06-2.25,2.04-3.82,3.35l-4.04,3.37-.96-1.15Z"/>
      <path class="cls-2" d="M58.32,200.29l-8.21,9.19-1.19-1.06,8.21-9.19,1.19,1.06Z"/>
      <path class="cls-1" d="M59.19,216.81l6.77-10.3,1.45.95-.12,7.38c-.03,1.71-.15,3.19-.35,4.56h.04c.78-1.45,1.58-2.72,2.63-4.33l2.83-4.31,1.25.82-6.77,10.3-1.34-.88.16-7.38c.03-1.62.12-3.25.33-4.71h-.06c-.78,1.34-1.56,2.59-2.69,4.31l-2.89,4.4-1.25-.82Z"/>
      <path class="cls-6" d="M86.31,230.63c-.76-.04-2.22-.2-3.75-.85-1.72-.73-2.95-1.76-3.62-3.29-.58-1.36-.55-3.13.2-4.9,1.44-3.38,4.81-4.88,8.62-3.27,1.31.55,2.22,1.27,2.61,1.72l-.86,1.05c-.49-.53-1.16-1.06-2.3-1.55-2.76-1.17-5.29-.21-6.49,2.64-1.21,2.88-.2,5.32,2.45,6.43.96.4,1.67.55,2.08.52l1.43-3.39-2.31-.97.5-1.18,3.74,1.58-2.3,5.46Z"/>
      <path class="cls-11" d="M113.75,237.37c-.62.2-1.82.31-3.3.08-3.43-.54-5.68-3.1-5.05-7.09.59-3.81,3.58-5.99,7.35-5.4,1.52.24,2.42.71,2.81.99l-.58,1.22c-.55-.38-1.37-.73-2.38-.89-2.85-.45-5.03,1.08-5.53,4.28-.46,2.98.95,5.16,3.92,5.62.96.15,1.96.1,2.64-.11l.13,1.3Z"/>
      <path class="cls-8" d="M130.99,232.64l-4.79.03.03,4.45,5.34-.03v1.33s-6.92.04-6.92.04l-.07-12.33,6.66-.04v1.34s-5.06.03-5.06.03l.02,3.9,4.79-.03v1.32Z"/>
      <path class="cls-5" d="M142.63,237.49l-2.13-12.14,1.71-.3,4.97,5.46c1.15,1.26,2.08,2.42,2.87,3.56l.03-.02c-.43-1.59-.72-3.07-1.06-4.96l-.89-5.08,1.48-.26,2.13,12.14-1.58.28-4.93-5.48c-1.08-1.2-2.14-2.45-2.98-3.65l-.05.03c.36,1.51.65,2.97,1.01,4.98l.91,5.19-1.48.26Z"/>
      <path class="cls-15" d="M160.96,221.85l-3.54,1.24-.45-1.28,8.62-3.01.45,1.28-3.56,1.24,3.62,10.36-1.52.53-3.62-10.36Z"/>
      <path class="cls-12" d="M181.96,218.08l-4.22,2.26,2.1,3.92,4.71-2.52.63,1.18-6.11,3.27-5.82-10.87,5.87-3.14.63,1.18-4.47,2.39,1.84,3.43,4.22-2.26.62,1.16Z"/>
      <path class="cls-7" d="M187.06,207.29c.54-.62,1.4-1.39,2.27-2.06,1.35-1.03,2.41-1.45,3.44-1.37.83.06,1.61.52,2.19,1.27.99,1.29.83,2.77.06,3.91l.03.04c.96-.32,1.94.04,2.95.88,1.36,1.12,2.32,1.89,2.81,2.11l-1.31,1c-.37-.15-1.23-.83-2.44-1.84-1.32-1.13-2.23-1.24-3.42-.4l-1.19.91,3.24,4.24-1.26.96-7.38-9.66ZM191.73,210.78l1.29-.99c1.35-1.03,1.64-2.43.79-3.55-.97-1.26-2.3-1.12-3.65-.11-.61.47-1,.86-1.16,1.07l2.73,3.57Z"/>
    </g>
  </g>
</svg>