<?xml version="1.0" encoding="UTF-8"?>
<svg id="Layer_1" data-name="Layer 1" xmlns="http://www.w3.org/2000/svg" viewBox="0 0 397.48 176.68">
  <defs>
    <style>
      .cls-1 {
        fill: #84cc16;
      }

      .cls-1, .cls-2 {
        stroke-width: 0px;
      }

      .cls-2 {
        fill: #231f20;
      }
    </style>
  </defs>
  <g>
    <g>
      <path class="cls-1" d="M5.17,50.68c-1.34,0-2.43-.59-2.91-1.59-.22-.44-.61-1.6.41-2.92C22.96,19.93,42.89,7.49,67.28,5.83c2.84-.19,5.75-.29,8.92-.29,7.38,0,14.85.53,22.07,1.04,7.12.5,14.49,1.02,21.67,1.02,12.76,0,23.03-1.7,32.35-5.34.45-.17.92-.26,1.4-.26,1.64,0,3.02,1.01,3.28,2.4.19,1-.23,2.42-2.02,3.12-11.45,4.48-25.45,6.75-41.61,6.75h0c-4.71,0-9.72-.19-14.88-.57-2.38-.17-4.75-.37-7.1-.57-6.71-.56-13.05-1.09-19.41-1.09-11.39,0-20.59,1.85-28.95,5.82-14.57,6.92-25.36,19.23-34.85,31.51-.64.83-1.75,1.32-2.97,1.32Z"/>
      <path class="cls-1" d="M153.69,4c1.15,0,2.03,1.07.53,1.65-12.66,4.95-26.97,6.61-40.88,6.61-5,0-9.94-.21-14.74-.57-9.07-.67-17.93-1.67-26.65-1.67-10.06,0-19.94,1.33-29.81,6.01-14.76,7.01-25.75,19.38-35.58,32.09-.28.37-.86.55-1.39.55-.84,0-1.57-.44-.92-1.28C20.53,26.34,39.84,9.7,67.42,7.82c2.93-.2,5.86-.28,8.79-.28,14.6,0,29.23,2.06,43.74,2.06,11.11,0,22.16-1.21,33.07-5.47.22-.09.45-.13.67-.13M153.69,0c-.73,0-1.45.13-2.13.4-9.07,3.55-19.12,5.2-31.62,5.2-7.1,0-14.44-.52-21.52-1.02-7.26-.51-14.76-1.04-22.21-1.04-3.21,0-6.18.1-9.06.29-13.69.93-26.06,5.28-37.8,13.28-9.58,6.53-18.82,15.63-28.26,27.84-1.18,1.53-1.42,3.41-.62,5.03.83,1.69,2.59,2.71,4.71,2.71,1.83,0,3.54-.78,4.55-2.1,9.34-12.08,19.94-24.18,34.13-30.92,8.19-3.89,16.85-5.63,28.09-5.63,6.28,0,12.58.53,19.24,1.08,2.32.19,4.72.39,7.12.57,5.21.38,10.27.58,15.03.58,16.41,0,30.66-2.32,42.34-6.88,2.75-1.07,3.61-3.46,3.26-5.35-.44-2.33-2.65-4.03-5.25-4.03h0Z"/>
    </g>
    <g>
      <path class="cls-1" d="M34.49,142.78c-4.12,0-6.98-3.44-7.46-8.97-.81-9.18,1.02-19.21,5.44-29.81,3.65-8.76,8.6-16.98,13.4-24.92l.83-1.38c1.85-3.07,3.69-6.15,5.53-9.23,10.36-17.32,21.08-35.23,33.5-51.61.74-.97,1.75-2.3,3.22-3.13.85-.47,1.83-.73,2.77-.73,1.13,0,2.16.36,2.96,1.03,1.53,1.28,2.04,3.57,1.28,5.71-.52,1.44-1.45,2.55-2.28,3.52l-.19.22c-2.03,2.41-3.88,5.07-5.74,7.82-7.33,10.77-14.46,21.88-21.21,33.02-7.97,13.16-17.05,28.95-23.91,46.18-2.13,5.35-4.39,11.69-5.04,18.17-.6,5.99.39,7.29.7,7.55.08.06.25.1.47.1,1.42,0,3.69-1.25,4.91-1.92l.35-.19c10.79-5.88,20.54-13.97,29.97-21.8l3.68-3.05c7.02-5.79,14.25-11.54,21.25-17.1,3.05-2.42,6.11-4.87,9.18-7.32,11.75-22.72,26.2-48.6,48.87-69.01l.49-.33s.14-.07.36-.16c2.18-1.63,6.22-4.19,10.2-4.19.57,0,1.13.05,1.67.16,4.35.85,6.05,3.29,6.71,5.18,2.55,7.31-6.79,18.59-7.86,19.85-15.12,17.79-32.57,32.82-47.69,45.19-2.06,3.85-4.03,7.6-5.94,11.23-4.54,8.65-8.83,16.82-13.02,23.81-.95,1.74-3.27,2.53-5.17,2.53h0c-1.69,0-2.99-.6-3.65-1.69-.33-.55-.77-1.69.02-3.21,2.73-5.24,5.45-10.6,8.07-15.79.31-.61.62-1.22.92-1.83-6.91,5.5-14.05,11.17-20.96,16.87l-3.67,3.04c-6.11,5.07-12.42,10.31-19.06,14.99-7.83,5.52-14.7,8.96-21.64,10.85-.79.21-1.56.32-2.29.32ZM168.43,16.64c-2.39,0-5.52,1.37-7.04,2.65-2.66,2.22-4.62,5.18-6.69,8.31-.95,1.43-1.93,2.92-2.98,4.31-3.69,4.9-7.36,10.15-10.93,15.61-3.25,4.97-6.43,10.13-9.73,15.78-1,1.71-2,3.46-3.03,5.28,7.73-6.59,14.28-12.55,20.23-18.38.98-.96,1.98-1.93,3.01-2.92,4.61-4.45,9.37-9.04,13.28-14.1,2.74-3.54,4.72-6.86,6.04-10.15.75-1.85.98-3.18.74-4.29-.22-1.04-.73-2.09-2.9-2.09Z"/>
      <path class="cls-1" d="M168.01,13.29c.43,0,.86.04,1.28.12,2.75.54,4.5,1.84,5.21,3.87,2.22,6.35-7.1,17.42-7.5,17.89-14.23,16.75-30.83,31.37-47.74,45.19-7.1,13.25-13.18,25.41-19.12,35.35-.5.97-2.09,1.51-3.43,1.51-1.42,0-2.56-.61-1.85-1.98,4.47-8.57,8.78-17.24,13.18-25.84-2.34,1.86-4.67,3.72-6.99,5.57-6.99,5.56-14.22,11.3-21.19,17.06l-3.67,3.04c-6.18,5.13-12.37,10.27-18.93,14.9-6.48,4.57-13.31,8.46-21.01,10.55-.63.17-1.22.25-1.76.25-3.56,0-5.15-3.48-5.47-7.15-.86-9.84,1.5-19.75,5.29-28.87,3.8-9.12,9-17.58,14.1-26.04,12.41-20.58,24.39-41.51,38.92-60.66.75-.98,1.53-1.99,2.6-2.59.54-.3,1.18-.48,1.8-.48.61,0,1.21.17,1.68.57.97.81,1.11,2.31.68,3.5-.43,1.19-1.3,2.16-2.11,3.13-2.13,2.53-4.01,5.25-5.87,7.98-7.38,10.85-14.47,21.89-21.27,33.11-9.05,14.94-17.6,30.25-24.06,46.48-2.4,6.03-4.52,12.25-5.17,18.72-.23,2.32-.67,7.59,1.43,9.3.48.39,1.07.55,1.73.55,2.09,0,4.8-1.58,6.21-2.35,10.96-5.97,20.79-14.13,30.29-22.02l3.67-3.05c6.99-5.77,14.22-11.52,21.22-17.07,3.16-2.51,6.34-5.04,9.52-7.59,12.94-25.04,26.99-49.34,48.63-68.82,0,0,.22-.1.52-.23,1.7-1.3,5.57-3.93,9.18-3.93M121.07,77c9.83-8.11,19.47-16.46,28.58-25.39,5.35-5.24,11.58-10.9,16.47-17.22,2.59-3.35,4.81-6.88,6.32-10.63.7-1.73,1.23-3.62.85-5.45-.57-2.72-2.54-3.68-4.85-3.68-2.98,0-6.51,1.6-8.32,3.11-4.2,3.5-6.75,8.65-9.99,12.96-3.85,5.11-7.51,10.36-11.01,15.71-3.4,5.2-6.65,10.5-9.79,15.87-1.5,2.57-2.98,5.16-4.43,7.76-1.03,1.85-2.22,5.64-3.83,6.96M168.01,9.29c-4.25,0-8.37,2.35-11.21,4.45-.12.05-.19.08-.19.08l-.99.65c-22.79,20.52-37.32,46.41-49.11,69.2-2.95,2.36-5.9,4.71-8.84,7.05-6.99,5.55-14.21,11.3-21.27,17.12l-3.68,3.05c-9.36,7.77-19.03,15.8-29.65,21.58l-.35.19c-.58.32-2.09,1.15-3.16,1.5-.15-.81-.26-2.37.03-5.28.62-6.24,2.83-12.42,4.91-17.63,6.81-17.1,15.83-32.79,23.76-45.89,6.73-11.11,13.85-22.19,21.16-32.94,1.91-2.8,3.64-5.31,5.62-7.65l.18-.22c.89-1.05,2-2.36,2.64-4.14,1.04-2.92.29-6.1-1.88-7.92-1.17-.98-2.64-1.5-4.25-1.5-1.3,0-2.6.34-3.75.99-1.84,1.03-2.99,2.55-3.84,3.66-12.49,16.47-23.24,34.43-33.63,51.79-1.84,3.07-3.68,6.15-5.53,9.22l-.83,1.38c-4.83,8.01-9.83,16.29-13.53,25.18-4.54,10.91-6.42,21.26-5.58,30.76.58,6.66,4.21,10.8,9.46,10.8.91,0,1.85-.13,2.81-.39,7.17-1.95,14.24-5.49,22.26-11.14,6.71-4.73,13.05-10,19.18-15.09l3.67-3.04c4.52-3.73,9.15-7.46,13.74-11.13-1.6,3.14-3.22,6.3-4.84,9.41-.91,1.75-.89,3.63.04,5.18,1.02,1.68,2.97,2.65,5.36,2.65s5.46-.93,6.9-3.53c4.2-7.04,8.5-15.22,13.05-23.87,1.85-3.52,3.76-7.15,5.74-10.87,15.12-12.38,32.52-27.4,47.64-45.19,2.63-3.1,11.01-13.83,8.23-21.8-.83-2.38-2.93-5.44-8.22-6.48-.66-.13-1.35-.2-2.05-.2h0ZM135.93,58.99c2.18-3.61,4.34-7.04,6.52-10.38,3.54-5.42,7.2-10.63,10.86-15.5,1.09-1.45,2.09-2.95,3.05-4.41,1.99-3.01,3.87-5.85,6.3-7.88,1.24-1.03,3.91-2.18,5.76-2.18.61,0,.83.13.83.13,0,0,.06.12.11.37.14.68-.07,1.71-.64,3.14-1.25,3.12-3.14,6.28-5.77,9.67-3.83,4.94-8.54,9.49-13.09,13.88-1.03.99-2.04,1.97-3.02,2.93-3.4,3.33-7,6.71-10.92,10.23h0Z"/>
    </g>
    <g>
      <path class="cls-1" d="M202.59,170.36c-.95,0-1.74-.48-2.12-1.28-.69-1.44.4-2.78.86-3.35,20.64-25.55,34.04-52.92,44.81-74.91,4.27-8.73,8.31-16.97,12.27-24.06.94-1.84,3.39-2.67,5.29-2.67,1.62,0,2.87.57,3.52,1.62.33.54.79,1.66.05,3.18-2.58,5.3-5.14,10.74-7.61,15.99-13.96,29.64-28.4,60.29-53.44,84.15l-.47.33c-.73.38-2.12,1-3.15,1h0Z"/>
      <path class="cls-1" d="M263.69,66.09c1.36,0,2.42.59,1.77,1.93-17.06,35.12-31.45,71.75-60.64,99.56,0,0-1.53.79-2.24.79-.45,0-.56-.32.29-1.37,28.95-35.83,43.3-74.31,57.29-99.29.49-1.02,2.15-1.61,3.52-1.61M263.69,62.09c-2.56,0-5.71,1.15-7.05,3.73-3.99,7.13-8.03,15.39-12.31,24.13-10.72,21.9-24.06,49.16-44.56,74.53-1.55,1.92-1.93,3.76-1.11,5.47.71,1.49,2.22,2.41,3.93,2.41,1.11,0,2.47-.41,4.06-1.22l.94-.67c25.31-24.12,39.83-54.94,53.87-84.74,2.47-5.25,5.03-10.68,7.6-15.97.85-1.74.79-3.61-.15-5.11-1.02-1.63-2.92-2.56-5.22-2.56h0Z"/>
    </g>
    <g>
      <path class="cls-1" d="M220.22,113.64c-3.92,0-5.75-2.02-6.59-3.72-4.81-9.72,10.57-35.74,12.01-37.63l.25-.33c1.72-2.27,4.91-6.49,8.73-6.49.58,0,1.14.1,1.68.28.87.3,1.5.95,1.78,1.82.74,2.28-1.16,5.6-5.17,11.33-.47.67-.91,1.3-1.06,1.56-2.68,4.57-5.15,9.34-7.33,14.16-.08.18-.2.44-.35.74-4.8,10.18-3.73,11.95-3.6,12.12h0s.13.03.33.03c.08,0,.17,0,.26-.01.12-.01.24-.02.36-.02,1.68,0,3.01,1.21,3.09,2.8.07,1.47-1,3.07-3.17,3.28-.43.04-.83.06-1.22.06h0Z"/>
      <path class="cls-1" d="M234.62,67.47c.34,0,.68.05,1.03.17,2.7.94-4.53,10.12-5.52,11.8-2.73,4.65-5.21,9.44-7.43,14.35-1.03,2.29-7.87,15.72-1.79,15.72.14,0,.29,0,.45-.02.06,0,.11,0,.17,0,1.44,0,1.56,1.91-.28,2.09-.36.03-.7.05-1.03.05-14.66,0,4.11-34.33,7.01-38.13,1.43-1.88,4.4-6.03,7.39-6.03M234.62,63.47s0,0,0,0c-4.81,0-8.4,4.73-10.32,7.28l-.25.32c-1.62,2.13-5.76,9.54-8.81,16.79-4.56,10.83-5.67,18.33-3.4,22.94.89,1.8,3.17,4.83,8.38,4.83.46,0,.93-.02,1.41-.07,2.97-.29,5.11-2.59,4.98-5.37-.11-2.36-1.82-4.22-4.12-4.62.23-1.39,1.03-4.13,3.49-9.35.15-.32.27-.58.36-.77,2.16-4.76,4.59-9.47,7.24-13.98.12-.2.59-.88.98-1.43,4.48-6.4,6.43-9.99,5.43-13.09-.47-1.46-1.58-2.59-3.03-3.09-.75-.26-1.54-.4-2.34-.4h0Z"/>
    </g>
    <g>
      <path class="cls-1" d="M220.84,114.73c-.43,0-.86-.04-1.29-.13-2.9-.6-4.55-3.04-5.07-4.96l1.4-2.46,1.37-.38,1.38-.39h.02s0,.01,0,.01l2.29,1.35.14-.04s0,.02.01.04c.6-.23,2.23-1.15,5.12-4.76,9.01-11.26,33.07-36.02,33.31-36.26l2.82-.04,2.07,2.01.04,2.83c-.24.25-24.1,24.81-32.86,35.76-4.05,5.07-7.47,7.42-10.76,7.42Z"/>
      <path class="cls-1" d="M260.96,68.14l2.07,2.01c-.24.25-24.14,24.84-32.99,35.91-3.58,4.48-6.6,6.67-9.2,6.67-.3,0-.6-.03-.89-.09-2.15-.44-3.24-2.42-3.54-3.53l2.78-.77-1.39.38,1.39-.4s.39,1.29,1.36,1.48c.08.02.18.03.29.03.94,0,3.07-.74,6.96-5.59,8.94-11.17,32.93-35.87,33.18-36.11M263.75,65.28l-5.65.07c-.24.24-24.33,25.03-33.44,36.41-2.6,3.25-3.97,4-4.24,4.12l-2.3-1.37v-.02s-.03,0-.03,0h-.02s-1.37.38-1.37.38l-1.37.38-2.79,4.92c.68,2.46,2.81,5.6,6.59,6.38.57.12,1.14.17,1.7.17,3.94,0,7.86-2.6,12.32-8.17,8.61-10.76,31.75-34.61,32.73-35.61l-.08-5.66-2.07-2.01h0Z"/>
    </g>
    <g>
      <path class="cls-1" d="M195.18,174.69c-2.06,0-3.82-.89-5.1-2.57-.88-1.16-1.22-2.46-1.45-3.58-2.55-12.76,5.08-23.21,12.88-31.76,10.56-11.56,24.02-19.86,37.05-27.89,2.12-1.3,4.21-2.59,6.29-3.89,4.58-2.87,9.18-5.72,13.77-8.57,10.89-6.75,22.15-13.74,33.12-20.93l2.77.57.79,1.2-.58,2.77c-11,7.21-22.31,14.23-33.24,21.01-4.59,2.85-9.18,5.69-13.75,8.56-2.09,1.31-4.19,2.6-6.31,3.91-12.72,7.84-25.86,15.93-35.9,26.93-6.88,7.54-13.64,16.65-11.56,27.02.06.29.21,1.04.45,1.36.22.29.46.41.83.42,2.86-.04,8.66-5.9,10.83-8.9l2.79-.45,1.17.84.46,2.79c-.08.11-8.16,11.08-15.21,11.17h-.09Z"/>
      <path class="cls-1" d="M292.83,77.16l.79,1.2c-10.95,7.18-22.26,14.2-33.2,20.98-4.59,2.85-9.18,5.69-13.76,8.56-2.08,1.3-4.18,2.6-6.29,3.9-12.83,7.9-26.09,16.08-36.33,27.28-7.22,7.91-14.3,17.51-12.05,28.76.15.78.36,1.58.81,2.18.63.83,1.47,1.2,2.41,1.21,4.2-.05,10.6-7.15,12.46-9.73l1.17.84c-1.56,2.17-8.44,10.27-13.61,10.33h-.06c-1.43,0-2.61-.6-3.51-1.78-.63-.83-.89-1.82-1.08-2.77-2.38-11.88,4.93-21.84,12.39-30.02,10.37-11.36,23.72-19.58,36.64-27.54,2.11-1.3,4.2-2.59,6.28-3.89,4.58-2.87,9.17-5.72,13.76-8.57,10.93-6.78,22.23-13.79,33.17-20.96M290.64,73.82c-10.92,7.16-22.19,14.15-33.08,20.91-4.24,2.63-9.04,5.61-13.78,8.58-2.07,1.3-4.16,2.59-6.26,3.88-13.16,8.11-26.75,16.48-37.49,28.25-8.14,8.91-16.09,19.87-13.36,33.5.27,1.34.69,2.92,1.81,4.39,1.65,2.17,4.03,3.36,6.7,3.36h.12c8.16-.1,16.72-11.88,16.81-12l-.91-5.58-1.17-.84-5.58.91c-2.29,3.17-6.44,6.93-8.53,7.86-1.87-9.48,4.55-18.08,11.09-25.24,9.85-10.79,22.87-18.81,35.45-26.56,2.13-1.31,4.24-2.61,6.34-3.92,4.65-2.92,9.48-5.91,13.75-8.55,10.95-6.79,22.27-13.81,33.28-21.04l1.15-5.54-.79-1.2-5.54-1.15h0Z"/>
    </g>
    <g>
      <path class="cls-1" d="M284.41,115.55c-1.82,0-3.43-.57-4.67-1.63-3.28-2.83-2.58-7.76-2.35-9.38,1.34-9.45,5.42-19.33,12.47-30.19,1.6-2.46,3.55-5.31,5.93-7.8,1.11-1.17,2.5-2.42,4.38-2.86.35-.08.67-.12.98-.12.55,0,1.05.12,1.5.37,1.56.85,2.01,2.74,1.14,4.83-1.04,2.51-2.51,4.75-3.93,6.92l-.58.88c-3.46,5.33-6.59,10.93-9.31,16.67-1.87,3.94-3.3,7.46-4.38,10.74-1.01,3.07-.89,4.86-.56,5.31.08.11.35.14.55.14,1.54,0,3.31-1.27,4.88-2.39l.64-.45c1.59-1.11,3.23-2.41,5.17-4.1,3.44-2.99,6.69-6.22,9.51-9.13-9.65-12.87,6.32-28.13,6.48-28.28,2.06-1.95,6.59-4.86,10.56-4.86,1.53,0,2.85.42,3.94,1.24.92.7,2.07,2.11,2.29,4.82.38,4.65-2.09,12.66-10.17,21.18,0,0-3.83,4.07-4.47,4.75.03,0,.07,0,.1,0,8.2,0,22.22-10.74,26.93-14.88l2.82.18.95,1.08-.18,2.82c-1.89,1.66-18.76,16.24-30.54,16.24h0c-.36,0-.71-.01-1.06-.04-1.27-.1-2.44-.38-3.51-.84-.97.98-2.49,2.56-3.26,3.37-.63.66-1.12,1.17-1.26,1.31-2.16,2.1-4.1,3.89-5.94,5.47-1.48,1.27-3.02,2.37-4.51,3.43l-.45.32c-.49.35-.97.72-1.45,1.09-1.1.85-2.24,1.72-3.56,2.44-1.62.88-3.43,1.37-5.11,1.37ZM322.84,65.64c-1.86,0-5.14,1.79-6.83,3.39-.12.12-11.81,11.44-6.37,20.31.94-.99,1.84-1.95,2.7-2.87l2.6-2.76c6.38-6.73,8.98-13.53,8.7-17-.04-.55-.16-.85-.22-.97-.12-.06-.33-.1-.58-.1Z"/>
      <path class="cls-1" d="M322.83,62.2c1.02,0,1.95.25,2.72.83.86.66,1.38,1.83,1.51,3.39.33,4.03-2,11.59-9.63,19.64l-2.59,2.75c-1.34,1.43-2.75,2.92-4.2,4.45.87.51,1.89.8,3.07.89.26.02.53.03.81.03,10.63,0,28.07-15.22,28.25-15.38l.95,1.08c-.75.66-17.98,15.74-29.22,15.74-.31,0-.61-.01-.9-.03-1.52-.12-2.85-.54-3.97-1.27,0,0,0,0,0,0-.24,0-5.11,5.19-5.6,5.67-1.9,1.85-3.83,3.66-5.84,5.38-1.55,1.33-3.17,2.46-4.82,3.65-1.59,1.14-3.07,2.45-4.8,3.4-1.25.68-2.73,1.13-4.15,1.13-1.24,0-2.42-.34-3.37-1.15-2.05-1.77-2.05-4.91-1.68-7.58,1.5-10.58,6.35-20.42,12.17-29.38,1.71-2.64,3.53-5.24,5.7-7.51.96-1,2.05-1.98,3.4-2.3.17-.04.34-.07.52-.07.19,0,.38.03.55.13.75.41.57,1.52.25,2.31-1.11,2.67-2.76,5.06-4.34,7.48-3.52,5.42-6.67,11.07-9.44,16.9-1.69,3.57-3.24,7.22-4.48,10.97-.77,2.33-2.25,8.07,1.89,8.07,0,0,.02,0,.03,0,2.42-.01,4.75-1.88,6.64-3.2,1.86-1.3,3.63-2.74,5.34-4.23,3.82-3.32,7.4-6.91,10.9-10.55-.21-.2-.41-.42-.6-.65-9.59-11.54,5.6-26.11,5.75-26.26,1.95-1.85,5.97-4.32,9.19-4.32M309.49,92.39c1.51-1.58,2.96-3.12,4.31-4.56l2.6-2.76c6.83-7.21,9.56-14.51,9.24-18.53-.09-1.13-.43-1.97-.95-2.36-.5-.38-1.13-.54-1.85-.54-2.66,0-6.42,2.25-8.2,3.93-.14.14-14.37,13.78-5.63,24.29.16.19.32.36.49.53M322.83,58.2h0c-4.92,0-9.96,3.54-11.94,5.42-.02.02-3.22,3.04-6.02,7.59.27-.55.53-1.11.77-1.69,1.27-3.05.45-6-2.03-7.35-.75-.41-1.57-.61-2.46-.61-.47,0-.94.06-1.44.18-2.4.57-4.13,2.13-5.37,3.43-2.5,2.62-4.52,5.56-6.16,8.1-7.22,11.11-11.4,21.25-12.77,31-.72,5.07.3,8.83,3.02,11.17,1.61,1.39,3.68,2.12,5.98,2.12,2,0,4.16-.57,6.06-1.61,1.45-.79,2.71-1.76,3.82-2.61.46-.35.92-.71,1.39-1.04l.45-.32c1.53-1.09,3.11-2.22,4.66-3.55,1.87-1.6,3.84-3.42,6.03-5.55.17-.17.48-.49,1.31-1.35.55-.58,1.5-1.57,2.35-2.44.89.27,1.84.44,2.82.52.4.03.8.05,1.21.05,12.51,0,29.92-15.02,31.86-16.74l.36-5.64-.95-1.08-5.65-.36c-4.76,4.18-13.05,10.2-19.72,12.93,8.47-8.97,11.05-17.57,10.64-22.64-.28-3.45-1.83-5.3-3.07-6.25-1.41-1.08-3.19-1.65-5.15-1.65h0ZM310.34,85.67c-1.33-7.05,6.95-15.11,7.05-15.2,1.07-1.01,2.88-2.07,4.23-2.56-.3,2.96-2.52,8.49-8.13,14.41l-2.6,2.77c-.18.19-.36.38-.54.58h0ZM286.9,106.97c.1-.61.28-1.4.6-2.37,1.06-3.2,2.46-6.64,4.29-10.51,2.68-5.66,5.77-11.19,9.18-16.44l.57-.87c.62-.94,1.24-1.9,1.84-2.89-3.48,6.99-3.51,13.7-.16,19.22-2.52,2.56-5.32,5.3-8.26,7.85-1.88,1.64-3.48,2.9-5.01,3.97-.21.15-.43.3-.65.46-.69.49-1.6,1.14-2.41,1.57h0Z"/>
    </g>
    <g>
      <g>
        <path class="cls-1" d="M97.09,117.91c-1.05-1.24-1.24-3.1-.47-4.74.55-1.19,1.45-2.04,2.18-2.73,11.19-10.6,22.2-21.78,32.85-32.59l2.65-2.69c3.11-3.15,6.97-7.07,12.02-8.63.89-.27,1.77-.41,2.62-.41,3.33,0,5.87,2.13,6.62,5.55.53,2.41,0,4.8-.43,6.39-1.93,6.99-6.25,12.79-10.43,18.4-3.15,4.23-6.41,8.61-8.5,13.36,0,0,0,.01,0,.02.03-.01.06-.03.1-.04,11.96-5.38,21.83-14.77,31.37-23.84,4.27-4.06,8.68-8.26,13.26-12.09l2.7.13.99,1-.13,2.93c-4.39,3.73-8.67,7.81-12.82,11.76-8.76,8.35-17.82,16.99-28.65,23.01-2.62,1.45-5.48,2.82-8.71,2.96-.15,0-.29,0-.44,0-2.27,0-4.17-.78-5.34-2.18-1.62-1.95-1.71-4.73-.27-8.26,2.7-6.62,6.85-12.34,10.86-17.87,2.44-3.36,4.96-6.84,7.08-10.43,1.08-1.82,1.42-3.37.88-3.96-.18-.19-.38-.32-.77-.32-.95,0-2.46.76-3.77,1.9-11.28,9.86-21.58,21.3-31.53,32.36-1.93,2.15-3.86,4.29-5.79,6.42-1.55,1.71-3.31,3.65-5.59,5.01l-2.55-.42Z"/>
        <path class="cls-1" d="M148.95,68.13c2.27,0,4.08,1.33,4.67,3.98.4,1.79.08,3.66-.4,5.43-3.27,11.85-13.9,20.24-18.83,31.49-.37.86-.68,1.96-.03,2.63.29.3.67.42,1.08.42.56,0,1.17-.21,1.69-.44,17.66-7.94,30.24-23.79,45.09-36.22.33.33.66.66.99,1-13.69,11.62-25.45,25.83-41.15,34.54-2.44,1.35-5.04,2.59-7.83,2.71-.12,0-.23,0-.35,0-1.42,0-2.9-.38-3.8-1.46-1.39-1.68-.78-4.2.04-6.23,4.24-10.38,12.17-18.49,17.82-28.04,1.16-1.97,2.17-4.66.62-6.33-.64-.69-1.42-.96-2.24-.96-1.82,0-3.85,1.32-5.08,2.4-13.54,11.83-25.41,25.64-37.48,38.94-1.56,1.72-3.15,3.45-5.13,4.64-.6-.7-.57-1.77-.18-2.6.39-.83,1.07-1.49,1.74-2.12,12.12-11.49,23.82-23.43,35.55-35.32,3.27-3.32,6.74-6.75,11.19-8.12.7-.22,1.39-.32,2.04-.32M148.95,64.13h0c-1.05,0-2.13.17-3.21.5-5.53,1.7-9.59,5.82-12.86,9.14l-2.68,2.72c-10.63,10.79-21.62,21.94-32.77,32.51-.8.76-1.9,1.8-2.61,3.34-1.09,2.35-.79,5.05.76,6.88l5.1.84c2.53-1.51,4.4-3.57,6.04-5.39,1.93-2.13,3.86-4.28,5.8-6.42,9.91-11.02,20.16-22.41,31.35-32.19.32-.28.64-.52.93-.71-.09.17-.19.36-.31.56-2.07,3.51-4.46,6.8-6.98,10.28-4.08,5.63-8.31,11.45-11.1,18.29-1.74,4.26-1.54,7.73.58,10.29,1.55,1.88,4,2.91,6.88,2.91.18,0,.35,0,.52-.01,3.65-.16,6.9-1.71,9.59-3.21,11.05-6.14,20.21-14.87,29.06-23.31,4.12-3.93,8.38-7.99,12.73-11.68l.25-5.86-.99-1-5.41-.25c-4.63,3.87-9.06,8.09-13.35,12.17-8.24,7.84-16.1,15.32-25.27,20.62,1.59-2.5,3.41-4.95,5.29-7.48,4.29-5.76,8.72-11.71,10.75-19.06.5-1.8,1.08-4.51.45-7.35-.95-4.32-4.32-7.11-8.58-7.11h0Z"/>
      </g>
      <g>
        <path class="cls-1" d="M172.5,120.42c-1.33,0-2.53-.34-3.56-1.01-2.33-1.51-3.82-3.97-4.2-6.92-.25-1.97-.04-4.06.67-6.59,1.36-4.85,3.95-9.31,7.49-12.89.84-.86,1.73-1.65,2.59-2.42,1.4-1.26,2.73-2.45,3.81-3.81.78-.99,1.13-1.83,1.02-2.41-.14-.72-1.05-1.47-1.92-2.2l-.28-.24c-1.9-1.59-3.25-3.18-4.12-4.86-2.34-4.53-1.49-10.56,2.11-15.03,3.71-4.6,9.78-7.69,15.1-7.69h.25c1.61.03,3.81.07,5.58,1.28,1.03.7,1.66,1.71,1.84,2.92.41,2.83-1.77,5.99-4.19,8.98l-.25.31c-2.68,3.35-7.15,7.5-10.27,10.34-.35.31-.73.5-1.14.57.29.54.63,1.03,1.03,1.47.34.36.74.71,1.16,1.09.88.77,1.87,1.65,2.56,2.87,1.22,2.17,1.22,5.06,0,7.94-1.31,3.08-3.56,5.5-5.6,7.46-.62.6-1.26,1.19-1.9,1.77-1.32,1.21-2.56,2.36-3.68,3.62-1.49,1.67-2.77,3.91-3.7,6.47l-.18.47c-.59,1.56-.84,2.56-.76,2.99.14.06.32.09.54.09.53,0,1.51-.18,3.14-1.02,6.91-3.58,28.41-21,38.8-29.71l14.43-12.01,2.82.26.92,1.11-.26,2.81-14.42,12c-1.23,1.04-30.5,25.55-39.79,30.37-2.12,1.1-3.97,1.63-5.66,1.63ZM192.85,60.32c-2.58.92-5.22,2.64-6.98,4.56-1.86,2.03-3.11,4.47-3.62,7.05-.05.25-.09.5-.12.75,4.05-3.78,7.95-8.27,10.73-12.36Z"/>
        <path class="cls-1" d="M191.21,56.36c.07,0,.14,0,.21,0,1.46.03,3.24.07,4.49.93,3.06,2.09-1.64,7.56-3.03,9.3-2.59,3.23-6.99,7.33-10.06,10.1-.06.05-.1.07-.12.07-.09,0,0-.29-.25-.29-.01,0-.03,0-.05,0-.01,0-.02,0-.03,0-.34,0-.07-.76,0-1.14,0-.03,0-.05-.03-.05-.09,0-.34.21-.43.28,4.58-4.03,9.47-9.43,12.85-14.51,1.08-1.62.53-2.99-.99-2.99-.31,0-.66.06-1.04.18-3.02.97-6.18,2.93-8.33,5.28-2.05,2.24-3.52,5.03-4.11,8.02-.69,3.49-.11,7.41,2.31,10.02,1.13,1.22,2.63,2.13,3.45,3.58,1.05,1.86.74,4.21-.1,6.17-1.13,2.65-3.09,4.82-5.14,6.8-1.9,1.83-3.93,3.53-5.69,5.5-1.81,2.04-3.15,4.56-4.08,7.12-.52,1.44-1.97,4.66-.22,5.78.47.31,1.04.46,1.71.46,1.1,0,2.46-.42,4.06-1.25,8.96-4.64,38.87-29.71,39.17-29.96l14.43-12,.92,1.11-14.42,12c-1.23,1.03-30.34,25.42-39.43,30.13-1.81.93-3.39,1.4-4.74,1.4-.94,0-1.77-.23-2.48-.69-1.91-1.24-3.02-3.25-3.3-5.49-.25-1.94.08-3.91.61-5.79,1.27-4.51,3.7-8.69,6.99-12.02,2.15-2.18,4.66-4,6.55-6.41.91-1.15,1.69-2.58,1.42-4.02-.3-1.54-1.68-2.59-2.89-3.6-1.44-1.2-2.76-2.58-3.62-4.24-2.11-4.07-.99-9.29,1.89-12.85,3.08-3.82,8.55-6.94,13.54-6.94M181.9,75.57s0,0,0,0c-.02.02-.03.02-.03.02,0,0,.01-.01.03-.03M191.21,52.36h0c-5.89,0-12.58,3.39-16.65,8.43-4.1,5.07-5.03,11.98-2.33,17.2.99,1.92,2.5,3.71,4.61,5.47l.29.24c.34.28.87.72,1.14,1.02-.08.17-.24.44-.54.82-.97,1.23-2.23,2.36-3.57,3.56-.88.79-1.79,1.61-2.68,2.51-3.78,3.82-6.54,8.58-7.99,13.75-.77,2.75-1.01,5.17-.73,7.38.45,3.54,2.26,6.5,5.09,8.34,1.36.88,2.93,1.33,4.65,1.33,2.02,0,4.17-.61,6.58-1.85,9.31-4.83,37.03-27.99,40.16-30.62l14.41-11.99.52-5.63-.92-1.11-5.64-.52-14.43,12c-10.36,8.67-31.67,25.95-38.42,29.46,0-.02.01-.04.02-.06.84-2.32,1.99-4.33,3.31-5.82,1.05-1.18,2.26-2.3,3.54-3.47.65-.6,1.3-1.2,1.93-1.81,2.18-2.1,4.6-4.7,6.05-8.12,1.47-3.45,1.43-6.99-.1-9.7-.86-1.52-2.04-2.56-2.99-3.39-.21-.18-.41-.36-.6-.53,3.14-2.86,7.41-6.86,10.05-10.17l.24-.3c2.71-3.34,5.14-6.93,4.62-10.53-.26-1.75-1.21-3.27-2.69-4.28-2.26-1.55-4.92-1.59-6.67-1.62-.09,0-.19,0-.28,0h0Z"/>
      </g>
    </g>
    <g>
      <path class="cls-1" d="M342.94,131.26c-3.94,0-7.28-1.46-9.92-4.35-2.49-2.72-3.79-6.68-3.58-10.86.16-3.26,1.19-6.68,3.14-10.46,4.62-8.98,12.27-16.15,21.52-20.19.45-.2,1.15-.43,1.9-.43,1.15,0,2.09.54,2.6,1.47.36.67.43,1.44.2,2.16-.41,1.28-1.61,2.03-2.29,2.36-5.77,2.81-16,9.19-19.78,20.35-1.14,3.38-2.23,10.34,1.83,12.49.64.34,1.32.5,2.1.5,3.59,0,7.94-3.51,10.28-5.39,4.12-3.31,7.65-7.26,10.51-11.73,4.8-7.5,7.04-13.59,7.04-19.16,0-3.2-.84-4.8-3-5.72-.16-.07-.45-.16-.81-.27-2.45-.78-5.5-1.74-5.66-4.1-.06-.9.29-2.17,2.31-3.13.74-.35,1.46-.49,2.1-.62l.27-.05c6.1-1.26,12.5-6.28,17.13-13.43,2.79-4.31,3.83-9.11,2.87-13.18-.25-1.05-.88-2.93-2.29-3.72-.59-.33-1.35-.49-2.31-.49-.51,0-1.08.05-1.76.14-5.88.82-11.53,3.81-15.51,8.22-3.98,4.4-6.39,10.33-6.61,16.26-.09,2.36-1.5,3.42-2.86,3.42h-.14c-1.47-.08-2.54-1.29-2.72-3.08-.58-5.92,1.33-12.27,5.23-17.43,3.44-4.55,8.43-8.27,14.41-10.76,3.71-1.54,7.22-2.32,10.43-2.32,1.07,0,2.13.09,3.15.26,4.51.77,8.54,3.49,10.51,7.11.28.52.53,1.06.72,1.61,1.54,4.26.4,8.68-.84,11.63-3.99,9.56-12.46,15.22-21.63,19.6.22.13.45.26.67.4,1.86,1.18,3.35,2.64,4.41,4.34,3.47,5.58,1.82,12.25.28,16.79-2.23,6.53-5.4,12.35-9.42,17.29-2.56,3.14-5.52,5.94-8.78,8.31-3.16,2.29-9.4,6.15-15.7,6.15h0Z"/>
      <path class="cls-1" d="M379.59,39.76c.94,0,1.88.07,2.82.23,3.72.63,7.31,2.82,9.09,6.1.23.43.43.87.6,1.33,1.18,3.28.54,6.96-.8,10.18-4.4,10.56-14.83,16.1-24.76,20.44,1.61.45,3.16,1.14,4.57,2.03,1.51.95,2.83,2.19,3.78,3.71,2.85,4.58,1.71,10.3.08,15.09-2.05,6.02-5.06,11.74-9.08,16.67-2.44,3-5.28,5.68-8.41,7.96-3.98,2.9-9.42,5.77-14.53,5.77-3.06,0-6-1.03-8.45-3.7-2.29-2.5-3.23-6.03-3.06-9.41s1.37-6.64,2.92-9.65c4.38-8.51,11.77-15.44,20.54-19.27.33-.15.74-.26,1.1-.26s.67.11.84.43c.38.71-.49,1.42-1.21,1.77-9.21,4.49-17.52,11.81-20.8,21.51-1.53,4.53-2.3,12.2,2.79,14.9.97.51,1.99.73,3.04.73,4.16,0,8.66-3.51,11.54-5.84,4.27-3.44,7.98-7.58,10.94-12.2,3.81-5.96,7.36-13.03,7.35-20.24,0-3.4-.91-6.15-4.22-7.56-1.16-.49-7.94-2.02-4.08-3.85.6-.28,1.27-.39,1.92-.52,7.65-1.58,14.28-7.93,18.41-14.3,2.81-4.33,4.33-9.71,3.13-14.73-.47-1.99-1.47-4-3.25-5-1-.56-2.14-.75-3.29-.75-.68,0-1.37.07-2.03.16-6.37.89-12.4,4.08-16.72,8.86-4.32,4.77-6.89,11.09-7.13,17.53-.02.64-.24,1.49-.86,1.49-.01,0-.02,0-.04,0-.55-.03-.77-.72-.83-1.27-.56-5.68,1.39-11.47,4.84-16.02,3.45-4.55,8.3-7.93,13.58-10.12,3.06-1.27,6.37-2.17,9.66-2.17M379.59,35.76c-3.47,0-7.24.83-11.2,2.48-6.31,2.62-11.57,6.56-15.23,11.4-4.2,5.56-6.26,12.42-5.63,18.83.32,3.22,2.54,4.77,4.61,4.88h.24c2.24,0,4.72-1.67,4.86-5.34.21-5.47,2.43-10.93,6.1-14.99,3.67-4.06,8.88-6.82,14.3-7.58.58-.08,1.06-.12,1.48-.12.6,0,1.06.08,1.33.24.53.29,1.03,1.23,1.32,2.44.84,3.54-.11,7.78-2.6,11.63-4.35,6.71-10.28,11.4-15.86,12.56l-.25.05c-.68.14-1.61.32-2.57.78-3.32,1.57-3.52,4.07-3.45,5.07.25,3.72,4.18,4.97,7.05,5.88.28.09.52.16.68.22.79.34,1.74.74,1.74,3.86,0,5.17-2.13,10.92-6.72,18.09-2.74,4.28-6.13,8.07-10.08,11.25-1.99,1.61-6.14,4.95-9.03,4.95-.45,0-.82-.09-1.16-.27-2.5-1.33-2.02-6.7-.87-10.09,3.54-10.48,13.27-16.53,18.76-19.2.97-.47,2.68-1.56,3.32-3.54.4-1.25.28-2.57-.34-3.72-.85-1.58-2.48-2.52-4.36-2.52-1.1,0-2.08.33-2.7.6-9.68,4.22-17.67,11.72-22.5,21.11-2.08,4.04-3.18,7.73-3.36,11.28-.24,4.71,1.26,9.2,4.1,12.31,2.99,3.27,6.93,5,11.4,5,6.87,0,13.53-4.09,16.88-6.53,3.41-2.48,6.49-5.39,9.16-8.67,4.18-5.13,7.46-11.15,9.76-17.91.97-2.83,3.9-11.46-.47-18.49-.78-1.25-1.75-2.39-2.9-3.39,8.35-4.36,15.82-10.06,19.6-19.13,1.96-4.7,2.26-9.23.87-13.08-.23-.64-.52-1.28-.85-1.89-2.29-4.21-6.75-7.25-11.93-8.13-1.13-.19-2.3-.29-3.49-.29h0Z"/>
    </g>
  </g>
  <g>
    <path class="cls-2" d="M199.5,22.34h-3.12v-1.13h7.59v1.13h-3.14v9.13h-1.34v-9.13Z"/>
    <path class="cls-2" d="M211.57,21.36c.67-.14,1.63-.21,2.54-.21,1.42,0,2.33.26,2.97.84.52.46.81,1.16.81,1.95,0,1.35-.85,2.25-1.93,2.62v.05c.79.27,1.26,1,1.51,2.07.33,1.43.58,2.42.79,2.82h-1.37c-.17-.29-.4-1.17-.69-2.45-.3-1.42-.85-1.95-2.06-1.99h-1.25v4.44h-1.32v-10.12ZM212.89,26.03h1.35c1.42,0,2.31-.78,2.31-1.95,0-1.32-.96-1.9-2.36-1.92-.64,0-1.1.06-1.31.12v3.74Z"/>
    <path class="cls-2" d="M227.86,28.25l-1.07,3.23h-1.37l3.49-10.26h1.6l3.5,10.26h-1.42l-1.1-3.23h-3.64ZM231.22,27.22l-1-2.95c-.23-.67-.38-1.28-.53-1.87h-.03c-.15.61-.32,1.23-.52,1.86l-1,2.97h3.09Z"/>
    <path class="cls-2" d="M243.29,21.22v10.26h-1.32v-10.26h1.32Z"/>
    <path class="cls-2" d="M252.05,31.48v-10.26h1.45l3.29,5.19c.76,1.2,1.35,2.28,1.84,3.33l.03-.02c-.12-1.37-.15-2.62-.15-4.22v-4.29h1.25v10.26h-1.34l-3.26-5.2c-.72-1.14-1.4-2.31-1.92-3.42l-.05.02c.08,1.29.11,2.53.11,4.23v4.38h-1.25Z"/>
    <path class="cls-2" d="M269.84,21.22v10.26h-1.32v-10.26h1.32Z"/>
    <path class="cls-2" d="M278.6,31.48v-10.26h1.45l3.29,5.19c.76,1.2,1.35,2.28,1.84,3.33l.03-.02c-.12-1.37-.15-2.62-.15-4.22v-4.29h1.25v10.26h-1.34l-3.26-5.2c-.72-1.14-1.4-2.31-1.92-3.42l-.05.02c.08,1.29.11,2.53.11,4.23v4.38h-1.25Z"/>
    <path class="cls-2" d="M302.87,31.02c-.59.21-1.77.56-3.15.56-1.55,0-2.83-.4-3.84-1.35-.88-.85-1.43-2.22-1.43-3.82.02-3.06,2.12-5.3,5.56-5.3,1.19,0,2.12.26,2.56.47l-.32,1.08c-.55-.24-1.23-.44-2.27-.44-2.5,0-4.12,1.55-4.12,4.12s1.57,4.14,3.96,4.14c.87,0,1.46-.12,1.77-.27v-3.06h-2.09v-1.07h3.38v4.93Z"/>
    <path class="cls-2" d="M324.96,31.14c-.49.24-1.46.49-2.71.49-2.89,0-5.07-1.83-5.07-5.19s2.18-5.39,5.36-5.39c1.28,0,2.09.27,2.44.46l-.32,1.08c-.5-.24-1.22-.43-2.07-.43-2.4,0-4,1.54-4,4.23,0,2.51,1.45,4.12,3.94,4.12.81,0,1.63-.17,2.16-.43l.27,1.05Z"/>
    <path class="cls-2" d="M338.38,26.67h-3.99v3.7h4.44v1.11h-5.77v-10.26h5.54v1.11h-4.22v3.24h3.99v1.1Z"/>
    <path class="cls-2" d="M347.01,31.48v-10.26h1.45l3.29,5.19c.76,1.2,1.35,2.28,1.84,3.33l.03-.02c-.12-1.37-.15-2.62-.15-4.22v-4.29h1.25v10.26h-1.34l-3.26-5.2c-.72-1.14-1.4-2.31-1.92-3.42l-.05.02c.08,1.29.11,2.53.11,4.23v4.38h-1.25Z"/>
    <path class="cls-2" d="M364.79,22.34h-3.12v-1.13h7.6v1.13h-3.14v9.13h-1.34v-9.13Z"/>
    <path class="cls-2" d="M382.17,26.67h-3.99v3.7h4.44v1.11h-5.77v-10.26h5.54v1.11h-4.22v3.24h3.99v1.1Z"/>
    <path class="cls-2" d="M390.79,21.36c.67-.14,1.63-.21,2.54-.21,1.41,0,2.33.26,2.97.84.52.46.81,1.16.81,1.95,0,1.35-.85,2.25-1.93,2.62v.05c.79.27,1.26,1,1.51,2.07.34,1.43.58,2.42.79,2.82h-1.37c-.17-.29-.4-1.17-.69-2.45-.3-1.42-.85-1.95-2.06-1.99h-1.25v4.44h-1.33v-10.12ZM392.12,26.03h1.35c1.41,0,2.31-.78,2.31-1.95,0-1.32-.96-1.9-2.36-1.92-.64,0-1.1.06-1.31.12v3.74Z"/>
  </g>
</svg>